<?xml version="1.0" encoding="UTF-8"?><svg id="Layer_1" xmlns="http://www.w3.org/2000/svg" viewBox="0 0 210.81 41.38"><defs><style>.cls-1{fill:#f8991d;}.cls-1,.cls-2{stroke-width:0px;}.cls-2{fill:#fff;}</style></defs><path class="cls-2" d="M160.97.5h8.51v34.92h-8.51V.5Z"/><polygon class="cls-2" points="58.7 11.68 51.35 .5 42.84 .5 42.84 35.41 51.35 35.41 51.35 13.88 65.57 35.41 74.08 35.41 74.08 35.4 58.7 11.68"/><polygon class="cls-2" points="74.08 28.84 74.08 .5 65.57 .5 65.57 15.73 74.08 28.84"/><path class="cls-2" d="M95.13,27.87c-.16,0-.3.04-.46.04-4.03,0-6.07-2.39-6.07-6.52V.5h-8.51v20.84c0,9.65,6.32,14.42,14.42,14.42.65,0,1.28-.04,1.91-.1l-1.29-7.79Z"/><path class="cls-2" d="M100.84.5v20.89c0,2.48-.78,4.31-2.27,5.39l1.36,8.17c5.46-1.72,9.42-6.24,9.42-13.62V.5h-8.51Z"/><polygon class="cls-2" points="144.85 .5 137.09 19.85 140.63 29.8 146.35 14.47 146.35 35.41 154.85 35.41 154.85 .5 144.85 .5"/><polygon class="cls-2" points="125.36 .5 115.31 .5 115.31 35.41 123.82 35.41 123.82 14.42 131.67 35.41 138.54 35.41 125.36 .5"/><path class="cls-2" d="M189.51,27.67c-4.11-1.07-6.6-4.71-6.6-9.81,0-6.22,3.58-10.15,9.25-10.15s9.2,3.93,9.2,10.15c0,5.39-2.82,9.15-7.29,9.97l10.04,13.55h6.7l-7.66-9.2c4.18-3.18,6.86-8.21,6.86-14.32,0-10.5-7.91-17.86-17.86-17.86s-17.96,7.36-17.96,17.86,8.06,17.91,17.96,17.91c1.08,0,2.12-.12,3.14-.28l-5.79-7.81Z"/><path class="cls-1" d="M17.03,18.46H0v17.03h17.03v-17.03ZM10.7,30.69l-1.94-1.94-1.94,1.94c-.56.56-1.46.56-2.02,0s-.56-1.46,0-2.02l1.94-1.94-1.94-1.94c-.56-.56-.56-1.46,0-2.02.56-.56,1.46-.56,2.02,0l1.94,1.94,1.94-1.94c.56-.56,1.46-.56,2.02,0,.56.56.56,1.46,0,2.02l-1.94,1.94,1.94,1.94c.56.56.56,1.46,0,2.02-.56.56-1.46.56-2.02,0Z"/><path class="cls-1" d="M18.01,17.48h17.03V.45S18.01.45,18.01.45v17.03ZM22.53,7.24h8.34c.79,0,1.43.64,1.43,1.43s-.64,1.43-1.43,1.43h-8.34c-.79,0-1.43-.64-1.43-1.43s.64-1.43,1.43-1.43Z"/><path class="cls-1" d="M18.01,18.46v17.03h17.03v-17.03h-17.03ZM30.87,30.48h-8.34c-.79,0-1.43-.64-1.43-1.43s.64-1.43,1.43-1.43h8.34c.79,0,1.43.64,1.43,1.43s-.64,1.43-1.43,1.43ZM30.87,26.19h-8.34c-.79,0-1.43-.64-1.43-1.43s.64-1.43,1.43-1.43h8.34c.79,0,1.43.64,1.43,1.43s-.64,1.43-1.43,1.43Z"/><path class="cls-1" d="M17.03,17.48V.45H0v17.03h17.03ZM4.53,7.24h2.74v-2.74c0-.79.64-1.43,1.43-1.43s1.43.64,1.43,1.43v2.74h2.74c.79,0,1.43.64,1.43,1.43s-.64,1.43-1.43,1.43h-2.74v2.74c0,.79-.64,1.43-1.43,1.43s-1.43-.64-1.43-1.43v-2.74h-2.74c-.79,0-1.43-.64-1.43-1.43s.64-1.43,1.43-1.43Z"/></svg>