<svg width="16" height="18" viewBox="0 0 16 18" fill="none" xmlns="http://www.w3.org/2000/svg">
<path d="M8.41291 3.16914L7.16681 3.16664C4.32441 3.15997 1.85686 5.42414 1.83731 8.16664V11.325C1.83731 11.9833 1.75231 12.6258 1.38596 13.1733L1.14201 13.5383C0.770557 14.0916 1.17006 14.8333 1.83731 14.8333H13.7628C14.4301 14.8333 14.8287 14.0916 14.4581 13.5383L14.2142 13.1733C13.8487 12.6258 13.7628 11.9825 13.7628 11.3241V8.16747C13.7288 5.42414 11.2553 3.17581 8.41291 3.16914V3.16914Z" stroke="white" stroke-linecap="round" stroke-linejoin="round"/>
<path d="M10.35 14.8333C10.35 15.4963 10.0813 16.1322 9.60312 16.601C9.12491 17.0699 8.4763 17.3333 7.8 17.3333C7.1237 17.3333 6.4751 17.0699 5.99688 16.601C5.51866 16.1322 5.25 15.4963 5.25 14.8333" stroke="white" stroke-linecap="round" stroke-linejoin="round"/>
<path d="M7.79985 0.666626C8.25072 0.666626 8.68312 0.842221 9.00194 1.15478C9.32075 1.46734 9.49986 1.89127 9.49986 2.33329V3.16663H6.09985V2.33329C6.09985 1.89127 6.27896 1.46734 6.59777 1.15478C6.91658 0.842221 7.34899 0.666626 7.79985 0.666626Z" stroke="white" stroke-linecap="round" stroke-linejoin="round"/>
</svg>
