<svg width="21" height="21" viewBox="0 0 21 21" fill="none" xmlns="http://www.w3.org/2000/svg"><g clip-path="url(#clip0_1896_4561)"><path d="M5.5 10.5L11.5 16L9 19L6.5 19.5L1.5 14.5L5.5 10.5Z" fill="#9C9C9C"></path><path d="M20.7782 6.99993C20.7776 6.78275 20.7339 6.56784 20.6498 6.3676C20.5657 6.16736 20.4428 5.98576 20.2882 5.83327L16.0357 1.54577C15.7211 1.2462 15.3034 1.0791 14.869 1.0791C14.4346 1.0791 14.0169 1.2462 13.7023 1.54577L1.65067 13.5799C1.3429 13.8902 1.1702 14.3096 1.1702 14.7466C1.1702 15.1836 1.3429 15.603 1.65067 15.9133L4.39234 18.6666H1.74984C1.59513 18.6666 1.44675 18.7281 1.33736 18.8375C1.22796 18.9468 1.1665 19.0952 1.1665 19.2499C1.1665 19.4046 1.22796 19.553 1.33736 19.6624C1.44675 19.7718 1.59513 19.8333 1.74984 19.8333H16.3332C16.4879 19.8333 16.6363 19.7718 16.7456 19.6624C16.855 19.553 16.9165 19.4046 16.9165 19.2499C16.9165 19.0952 16.855 18.9468 16.7456 18.8375C16.6363 18.7281 16.4879 18.6666 16.3332 18.6666H9.76484L20.2648 8.1666C20.4237 8.01606 20.5509 7.83534 20.6391 7.63501C20.7272 7.43468 20.7745 7.21877 20.7782 6.99993ZM8.114 18.6666H6.04317L2.479 15.1024C2.43332 15.0569 2.39708 15.0028 2.37235 14.9433C2.34761 14.8837 2.33488 14.8198 2.33488 14.7554C2.33488 14.6909 2.34761 14.627 2.37235 14.5674C2.39708 14.5079 2.43332 14.4538 2.479 14.4083L5.69317 11.1883L10.6457 16.1349L8.114 18.6666ZM19.4657 7.31493L11.4682 15.3124L6.5215 10.3599L14.5132 2.36827C14.6066 2.27878 14.7309 2.22882 14.8603 2.22882C14.9896 2.22882 15.1139 2.27878 15.2073 2.36827L19.4657 6.62077C19.5582 6.71386 19.6106 6.83952 19.6115 6.97077C19.6115 7.03499 19.5986 7.09856 19.5736 7.15769C19.5485 7.21682 19.5118 7.27029 19.4657 7.31493Z" fill="#343A40"></path></g><defs><clipPath id="clip0_1896_4561"><rect width="21" height="21" fill="white"></rect></clipPath></defs></svg>